<svg width="79" height="16" viewBox="0 0 79 16" fill="none" xmlns="http://www.w3.org/2000/svg">
<path d="M17.4062 0.0390625H18.4609C21.3359 0.0390625 23.0547 1.01562 23.6172 2.96875C23.7969 3.60156 23.8867 4.33203 23.8867 5.16016V16H17.4062V0.0390625ZM8.71094 0.0390625H15.2266V16H8.71094V0.0390625ZM-0.0078125 0.0390625H6.50781V16H-0.0078125V0.0390625ZM35.8281 0.0507812H36.7422C39.6406 0.0507812 41.5547 1.34375 42.4844 3.92969C42.8594 4.99219 43.0469 6.21484 43.0469 7.59766C43.0469 9.92578 42.5977 11.8438 41.6992 13.3516C40.6367 15.1172 38.9844 16 36.7422 16H35.8281V0.0507812ZM33.0039 16C30.1211 16 28.2109 14.5391 27.2734 11.6172C26.8906 10.4297 26.6992 9.08984 26.6992 7.59766C26.6992 4.55859 27.543 2.41406 29.2305 1.16406C30.2227 0.421875 31.4805 0.0507812 33.0039 0.0507812H33.918V16H33.0039ZM53.875 5.01953C53.875 3.26953 54.3203 2.00781 55.2109 1.23438C56.125 0.445313 57.5898 0.0507812 59.6055 0.0507812H60.3203V8.47656C60.3203 12.1094 59.2812 14.4375 57.2031 15.4609C56.4766 15.8203 55.6055 16 54.5898 16H53.875V5.01953ZM51.1094 16C49.1484 16 47.6875 15.3164 46.7266 13.9492C45.8359 12.6836 45.3906 10.8594 45.3906 8.47656V0.0507812H46.1055C48.1211 0.0507812 49.5859 0.445313 50.5 1.23438C51.3906 2.00781 51.8359 3.26953 51.8359 5.01953V16H51.1094ZM71.7461 0.0507812H78.25V4.48047H77.0312C74.9141 4.48047 73.4688 4.14844 72.6953 3.48438C72.0625 2.9375 71.7461 2.05469 71.7461 0.835938V0.0507812ZM63.4141 0.0507812H69.7188V6.47266H74.418V9.53125H69.7188V15.9766H63.4141V0.0507812ZM71.7344 14.8633C71.7344 13.2461 72.6719 12.1484 74.5469 11.5703C75.2656 11.3516 76.1914 11.2422 77.3242 11.2422H78.25V16H71.7344V14.8633Z" fill="#E20000"/>
</svg>
